<svg width="24" height="24" viewBox="0 0 24 24" fill="none" xmlns="http://www.w3.org/2000/svg">
<g opacity="0.48">
<path d="M18.5411 6.34564C18.5411 5.72361 19.0526 5.21999 19.6841 5.21999C20.3156 5.21999 20.8271 5.72361 20.8271 6.34564L20.8271 20.73C20.8271 21.352 20.3156 21.8572 19.6841 21.8572C19.0526 21.8572 18.5411 21.352 18.5411 20.73L18.5411 6.34564ZM10.8488 3.34564C10.8014 2.91148 11.0098 2.4868 11.384 2.25473C11.7613 2.02265 12.2381 2.02265 12.6154 2.25473C12.9896 2.4868 13.198 2.91148 13.1506 3.34564L13.1506 20.73C13.0843 21.3078 12.5901 21.7451 11.9997 21.7451C11.4092 21.7451 10.9135 21.3078 10.8488 20.73L10.8488 3.34564ZM3.17228 12.3853C3.23701 11.8074 3.73273 11.3701 4.32318 11.3701C4.91205 11.3701 5.40778 11.8074 5.47251 12.3853L5.47251 20.7157C5.40778 21.2951 4.91205 21.7325 4.32318 21.7325C3.73273 21.7325 3.23701 21.2951 3.17228 20.7157L3.17228 12.3853Z" fill="black"/>
</g>
</svg>
